<?xml version="1.0" encoding="UTF-8"?>
<svg width="200px" height="41px" viewBox="0 0 200 41" version="1.1" xmlns="http://www.w3.org/2000/svg" xmlns:xlink="http://www.w3.org/1999/xlink">
    <!-- Generator: Sketch 48.2 (47327) - http://www.bohemiancoding.com/sketch -->
    <title>logo@2x</title>
    <desc>Created with Sketch.</desc>
    <defs></defs>
    <g id="Page-1" stroke="none" stroke-width="1" fill="none" fill-rule="evenodd">
        <g id="logo" fill="#FFFFFF" fill-rule="nonzero">
            <path d="M23.5164286,0.00622574956 C26.8378924,0.00622574956 29.7798765,0.902689594 32.1810758,2.47704586 C30.2440388,1.41202822 27.9395062,0.789832451 25.2831393,0.75356261 C20.0236684,0.681843034 14.5537302,3.17243386 10.4875132,7.21955026 C6.43794533,11.2501499 3.85248677,16.7744797 3.72783069,22.1223633 C3.60284832,27.4702205 5.70081129,31.4875485 8.98697531,34.0644268 C12.0628395,36.4763228 16.3137831,37.4890212 20.7478748,36.7602822 C25.1817725,36.0317284 29.1343563,33.8128307 32.2945591,30.7406878 C34.8714374,28.2355467 36.9352293,25.1536861 38.1352557,21.6343739 C35.2863845,31.9491358 25.4562169,40.0650705 15.457963,40.0650705 C4.94795414,40.0650705 -1.76800705,31.0978395 0.457363316,20.0353968 C2.68258377,8.97345679 13.006746,0.00622574956 23.5164286,0.00622574956 Z M23.549127,8.78855379 L24.4044709,8.78855379 L24.4044709,31.3828042 C27.1783774,30.286067 29.5289065,28.5138624 31.422866,26.357134 C33.6668607,23.8017813 35.2504409,20.6598765 35.7271076,17.2585979 C36.2037478,13.8573016 35.4254674,10.6621252 33.6607143,8.34074074 C31.7666049,5.84917108 28.8536155,4.22544974 24.8443651,4.26704586 C20.8351411,4.30866843 16.5362522,6.27564374 13.340582,9.45367725 C10.3592769,12.4183069 8.36137566,16.3520899 8.01587302,20.2910406 L8.01861552,20.1466402 C8.13358025,15.563933 10.2907848,10.8353527 13.6857584,7.36525573 C17.1124603,3.86261905 21.7411552,1.67609347 26.2490653,1.69779541 C30.7569489,1.71948854 34.1422046,3.76223104 36.209418,6.86399471 C38.1485273,9.77358025 38.8261199,13.7316667 37.9791711,17.7452646 C37.1322575,21.7588889 35.0373898,25.2134303 32.2778836,27.8790212 C29.5387831,30.5248677 26.1193563,32.4092769 22.3338801,32.9715608 C18.9834215,33.469418 15.7974691,32.7847354 13.3198589,31.1472399 C15.927478,32.5692328 19.2941358,32.8807496 22.6108995,31.978933 C22.9285538,31.8926455 23.2411905,31.7974339 23.549127,31.6944709 L23.549127,8.78855379 Z" id="Fill-1"></path>
            <path d="M47.4658113,14.56306 C48.2071958,14.1343915 49.0304145,13.9439153 49.9076367,13.9439153 C50.4740388,13.9439153 51.0287213,14.0342504 51.5685802,14.2051587 C52.1614991,14.3927778 52.7020106,14.688448 53.1979453,15.069418 C53.7545503,15.5167196 54.1759524,16.0853175 54.4867901,16.7259436 C54.8551146,17.4850176 54.997575,18.3271869 54.9902998,19.1665079 C54.9830511,20.0061552 54.8257231,20.8606261 54.3970723,21.5925573 C54.0214727,22.2338007 53.5302557,22.7828307 52.9073369,23.1919048 C52.3497795,23.5577072 51.7442328,23.852425 51.1017108,24.0353263 C50.5700529,24.1869577 50.0128219,24.2946649 49.4581129,24.2946649 C48.4861376,24.2946649 47.5387831,24.1067196 46.6691358,23.6632011 C45.8260229,23.2335979 45.1755996,22.5983598 44.7074603,21.7760847 C44.194127,20.8732716 44.0049206,19.8472487 44.0049206,18.8177778 C44.0049206,18.7637566 44.0064991,18.7030952 44.0165961,18.648448 L44.0165961,18.5066138 C44.0165961,17.5516843 44.2171958,16.5945326 44.5106614,15.6891975 C44.8546649,14.6281305 45.3218607,13.6049559 45.8610935,12.6294797 C46.4505379,11.5624074 47.1271781,10.5436596 47.8625661,9.57198413 C48.6409171,8.54343915 49.4998325,7.57683422 50.4098942,6.6632716 L50.530582,6.54196649 L51.7486508,7.55723986 L51.6346208,7.70034392 C51.1756261,8.27684303 50.7368519,8.86944444 50.3220811,9.47847443 C49.8640388,10.1516402 49.4202205,10.8342769 48.9902998,11.5257672 C48.4551675,12.3856085 47.7917989,13.5250441 47.4658113,14.56306 Z M63.881358,7.27829806 L65.6705379,7.27829806 L65.6838095,7.45077601 C65.770679,8.57218695 65.8250176,9.69707231 65.8698854,10.8207055 C65.9239065,12.1837566 65.9801235,13.5474603 66.0075926,14.9114638 C66.0353968,16.3026455 66.0429894,17.6944709 66.0429894,19.08597 C66.0429894,20.5494885 66.0158201,22.0139506 65.9876984,23.476843 C65.9794974,23.9007672 65.9649559,24.4425044 65.8496649,24.8569489 C65.7611993,25.1425132 65.5811464,25.3905026 65.257037,25.3905026 C64.9610494,25.3905026 64.7658554,25.1519841 64.6388448,24.9055908 C64.5080864,24.6317284 64.3150617,24.4027072 64.0212963,24.2934215 C63.624515,24.1360847 63.1292063,24.0315256 62.7116049,23.9437125 C60.2565168,23.4281746 56.5122575,22.2657231 56.5122575,19.1649383 C56.5122575,18.3328924 56.7315079,17.5602116 57.2599912,16.9104145 C57.7360317,16.3241358 58.3106349,15.8455467 58.9821958,15.4983951 C59.6964374,15.1291182 60.4621605,14.8394533 61.2250176,14.5880071 C61.6584392,14.444903 62.213448,14.2629453 62.6130423,14.0339242 C62.8250176,13.9179894 63.0230688,13.7616314 63.1244797,13.5313404 C63.2533686,13.2562257 63.3276102,12.7744797 63.3724515,12.4781746 C63.5932451,10.8121781 63.7404586,9.12688713 63.8683862,7.45110229 L63.881358,7.27829806 Z M81.5737213,12.2447266 L80.9533069,24.1332628 L79.4108201,24.1332628 L78.602769,12.247575 C78.5771781,11.8678748 78.539903,11.4796473 78.4691623,11.1100441 C78.4056437,10.8481746 78.2502381,10.6365256 78.0572399,10.4615256 C77.7779718,10.2230247 77.3047884,10.0982716 76.9554056,10.0306526 L74.2788624,9.55746032 C74.0653351,9.51954145 73.7819753,9.4538448 73.6211905,9.30537037 C73.4581922,9.16701058 73.395,8.96768078 73.395,8.75826279 C73.395,8.15838624 74.1695767,8.07244268 74.6156173,8.05477072 C76.4370459,7.98338624 78.2597178,7.9483157 80.0824162,7.9483157 C81.906358,7.9483157 83.7303086,7.98273369 85.5529806,8.05477072 C85.9990212,8.07244268 86.7732716,8.15838624 86.7732716,8.75826279 C86.7732716,8.96768078 86.708836,9.16828042 86.5410758,9.31041446 C86.3654497,9.45037037 86.1067372,9.51891534 85.8894092,9.55746032 L83.2128748,10.0306526 C82.8082187,10.1020459 82.1217813,10.2669489 81.9088801,10.6744444 C81.6751146,11.0945679 81.6034215,11.7746825 81.5737213,12.2447266 Z M86.8462434,18.2911905 C86.8247707,18.5195679 86.808642,18.7523898 86.808642,18.9795062 C86.808642,20.0791182 87.0856878,21.1335626 87.9521781,21.8635714 C88.8316226,22.6046561 89.9760758,22.8368519 91.099709,22.8368519 C91.3306085,22.8368519 91.6708377,22.8387213 91.910582,22.9224427 C92.1133862,23.0213316 92.2128924,23.2026279 92.2128924,23.4259788 C92.2128924,24.2317989 90.6492416,24.2239065 90.129903,24.2239065 C89.1544533,24.2239065 88.207425,24.0460758 87.317231,23.6436243 C86.8832099,23.4474515 86.465291,23.2017019 86.0994885,22.8952646 C85.7466314,22.5996032 85.4414638,22.2594004 85.1821252,21.8796914 C84.6163668,21.0508025 84.3889242,20.0939683 84.3889242,19.0979718 C84.3889242,18.171455 84.590776,17.2841182 85.0475661,16.4751235 C85.4913845,15.6891975 86.1200088,15.0845944 86.9097354,14.6492769 C87.7329541,14.1953527 88.6269224,13.9875044 89.5660494,13.9875044 C90.3368342,13.9875044 91.172672,14.0784744 91.8821605,14.3978307 C92.431164,14.6451764 92.9359788,14.9904586 93.3055556,15.4718695 C93.6179718,15.8790476 93.8552116,16.3329894 93.9970459,16.8320723 C94.1025573,17.2449471 94.1758289,17.6770988 94.1758289,18.1041711 L94.1758289,18.2911905 L86.8462434,18.2911905 Z M103.589048,14.5801058 L103.589048,17.2228483 L103.27821,16.9473898 C102.475838,16.2369489 101.480485,15.6225485 100.374877,15.6225485 C99.5920988,15.6225485 98.9261817,15.8793739 98.4018254,16.4703968 C97.8597354,17.0806966 97.6291446,17.8085009 97.6291446,18.6206526 C97.6291446,19.4931481 97.7959436,20.382381 98.3187302,21.1007143 C98.7609788,21.7084921 99.3210582,22.1769577 100.027072,22.4429277 C100.682866,22.6899471 101.371173,22.8368519 102.073713,22.8368519 C102.198818,22.8368519 102.337178,22.8229541 102.462266,22.8137831 C102.598095,22.8036772 102.745626,22.7894533 102.881764,22.7894533 C103.18627,22.7894533 103.427619,22.9363404 103.427619,23.2642504 C103.427619,23.648351 103.026772,23.8647443 102.715608,23.9828836 C102.221243,24.1711552 101.661164,24.2239065 101.135529,24.2239065 C99.9670547,24.2239065 98.7909965,24.008157 97.7915256,23.374806 C96.9471252,22.8396737 96.2806085,22.1330423 95.8434127,21.2330776 C95.4434921,20.4101764 95.2214462,19.5364109 95.2214462,18.6206526 C95.2214462,17.9632892 95.347478,17.3286684 95.620097,16.7300617 C95.8800617,16.158933 96.2550176,15.6696208 96.7285538,15.2592769 C97.2153175,14.8372487 97.7643474,14.5292416 98.3781217,14.3314903 C99.0231658,14.1233422 99.6982363,14.0348765 100.374877,14.0348765 C101.420141,14.0348765 102.460988,14.2316755 103.457319,14.5393651 L103.589048,14.5801058 Z M110.099533,15.5991534 C109.822196,15.5991534 109.567575,15.6737213 109.337601,15.8423986 C109.026772,16.0540476 108.789224,16.5161905 108.641393,16.8538713 C108.315705,17.5640123 108.093633,18.3831041 107.91231,19.1415608 C107.581279,20.5261111 107.339929,21.9583598 107.11881,23.3643827 C107.054039,23.7753616 106.848395,24.1332628 106.390044,24.1332628 C106.091534,24.1332628 105.896931,23.9604586 105.812593,23.6875485 C105.67709,23.3368871 105.664118,22.7610317 105.659065,22.3908025 C105.613898,20.9190653 105.592099,19.4467019 105.592099,17.9743298 C105.592099,16.1156437 105.630644,14.2563228 105.718457,12.3995062 C105.79522,10.7745855 105.928827,9.15216049 106.125635,7.53733686 L106.145855,7.37308642 L107.886411,7.37308642 L107.893686,7.55251323 C107.957804,9.14236332 108.013095,10.794806 108.180503,12.3770811 C108.223148,12.7798589 108.326455,13.7666843 108.536508,14.1129189 C108.681508,14.3517108 108.930106,14.4171076 109.19672,14.4171076 C109.556825,14.4171076 109.968748,14.3551852 110.325406,14.3046384 C110.740159,14.2455732 111.19,14.1843034 111.609171,14.1843034 C112.763748,14.1843034 113.554427,14.7342681 113.946755,15.8263051 C114.331508,16.9868783 114.315079,19.2672751 114.315079,20.4932451 C114.315079,21.6468783 114.293289,22.8084039 114.212116,23.959515 L114.199797,24.1332628 L112.49179,24.1332628 L112.486411,23.95194 C112.46209,23.1394621 112.41597,22.3276102 112.349004,21.5176896 C112.291808,20.8274515 112.220123,20.1242857 112.094709,19.4394533 C111.939277,18.4936684 111.69321,17.3659347 111.228519,16.5193651 C110.999497,16.101746 110.628642,15.5991534 110.099533,15.5991534 Z M117.267716,17.7693386 C117.267716,16.3819312 117.295511,14.9418166 117.466085,13.5638889 C117.509683,13.2138801 117.697337,12.9270635 118.077663,12.9270635 C118.382496,12.9270635 118.59097,13.2502028 118.716085,13.4883951 C118.853492,13.7496384 119.032919,13.9871781 119.270467,14.1704056 C119.539903,14.3858289 120.08261,14.4171076 120.411146,14.4171076 C120.895388,14.4171076 121.383774,14.3716049 121.863289,14.3046384 C122.342478,14.2373721 122.835917,14.1843034 123.320159,14.1843034 C124.479815,14.1843034 125.285635,14.7178395 125.657769,15.8253527 C125.844145,16.3800617 125.913933,17.0563757 125.9547,17.6379277 C126.02134,18.5915785 126.049462,19.548739 126.049462,20.5049383 C126.049462,21.6573016 126.014392,22.8122046 125.922778,23.9610847 L125.909206,24.1332628 L124.202125,24.1332628 L124.197399,23.9513139 C124.16455,22.7063668 124.071667,21.4642945 123.918783,20.2285273 C123.779797,19.1030159 123.543501,17.9585626 123.13381,16.8984215 C122.916455,16.3367637 122.526658,15.5991534 121.830441,15.5991534 C121.25172,15.5991534 120.864436,15.9637125 120.583924,16.4410229 C120.176129,17.1353351 119.92246,17.9367637 119.7503,18.7198413 C119.442945,20.120194 119.195899,21.5439153 118.968148,22.9553086 C118.931834,23.2111817 118.874965,23.5836067 118.753351,23.8091534 C118.651314,24.0185802 118.473166,24.1332628 118.239065,24.1332628 C117.996473,24.1332628 117.795873,24.0315256 117.685635,23.8164021 C117.557081,23.5915079 117.513157,23.2013845 117.489462,22.9464638 C117.416199,22.1633598 117.371949,21.3771076 117.338783,20.5914815 C117.298686,19.6514021 117.267716,18.7103704 117.267716,17.7693386 Z M128.158977,18.9795062 C128.158977,18.0539506 128.345979,17.1489153 128.819824,16.3459347 C129.273113,15.5780071 129.908386,14.9992769 130.71231,14.6091799 C131.609744,14.1738801 132.597549,14.0108818 133.588801,14.0108818 C134.357681,14.0108818 135.12246,14.116067 135.854365,14.3551852 C136.49246,14.5636861 137.083183,14.8760935 137.594295,15.3221429 C138.071287,15.7615344 138.428871,16.2893915 138.670212,16.8917901 C138.931781,17.5453616 139.053713,18.232425 139.053713,18.9362346 C139.053713,19.8965432 138.86134,20.8331481 138.396349,21.6790917 C137.947778,22.4947443 137.302407,23.1132451 136.483933,23.5548589 C135.589347,24.0372222 134.598395,24.2239065 133.588801,24.2239065 C132.588377,24.2239065 131.615441,24.0312257 130.729383,23.5551852 C129.914056,23.117037 129.269012,22.5010406 128.817593,21.691746 C128.351349,20.8565256 128.158977,19.9309612 128.158977,18.9795062 Z M143.910838,20.9873104 C144.020441,21.2428483 144.173977,21.5394885 144.379921,21.7365873 C144.577672,21.9343386 144.82627,22.0970194 145.071737,22.2360229 C145.289683,22.3649118 145.513333,22.5089418 145.715185,22.6782716 C145.887663,22.8393739 145.96,23.0547972 145.96,23.2879189 C145.96,23.5807584 145.817866,23.8078836 145.570529,23.9680335 C145.306755,24.1285185 144.993695,24.1806349 144.688862,24.1806349 C144.287063,24.1806349 143.848915,24.0441711 143.477734,23.8998148 C142.959056,23.6976455 142.512055,23.3536332 142.124153,22.9543651 C141.653792,22.4514462 141.399497,21.8079806 141.269039,21.1398854 C141.048862,20.0127778 141.036869,18.6598236 141.036869,17.5131393 C141.036869,16.6311728 141.064991,15.7441623 141.092134,14.862522 C141.125935,13.7783862 141.18597,12.6945679 141.254189,11.612328 C141.340132,10.2552469 141.449092,8.89881834 141.565979,7.54395944 L141.580829,7.37308642 L143.432892,7.37308642 L143.429092,7.56386243 C143.382972,9.81110229 143.326755,12.0687743 143.326755,14.3163404 C143.326755,15.7331129 143.343801,17.1811287 143.464162,18.5931834 C143.527981,19.3418342 143.636014,20.2891975 143.910838,20.9873104 Z M146.185247,18.9795062 C146.185247,18.0542769 146.372249,17.1486155 146.845767,16.3459347 C147.299056,15.5776808 147.93463,14.9992769 148.73858,14.6091799 C149.635714,14.1738801 150.623492,14.0108818 151.614744,14.0108818 C152.383624,14.0108818 153.148404,14.116067 153.880309,14.3551852 C154.518404,14.5636861 155.109136,14.8760935 155.620247,15.3218166 C156.097557,15.7612081 156.454515,16.2893915 156.696164,16.8917901 C156.958025,17.5453616 157.079965,18.232425 157.079965,18.9362346 C157.079965,19.8965432 156.887284,20.8331481 156.422293,21.6790917 C155.973721,22.4947443 155.328677,23.1132451 154.510212,23.5548589 C153.6156,24.0375485 152.624347,24.2239065 151.614744,24.2239065 C150.614347,24.2239065 149.641393,24.0312257 148.755326,23.5551852 C147.940009,23.117037 147.294965,22.5010406 146.843545,21.691746 C146.377302,20.8565256 146.185247,19.9309612 146.185247,18.9795062 Z M167.797795,23.5450617 C167.773175,24.4854674 167.671764,25.4991711 167.370097,26.394709 C167.096534,27.2068519 166.615123,27.8980423 165.992496,28.4817989 C165.338907,29.094321 164.573201,29.5463404 163.740829,29.8713933 C162.937531,30.1853792 162.090608,30.3809347 161.225071,30.3809347 C160.720282,30.3809347 160.087884,30.2520459 160.087884,29.6262787 C160.087884,29.1925573 160.613192,28.9625838 160.958148,28.8494974 C162.558457,28.3257407 165.125679,27.2630952 165.125679,25.2275044 C165.125679,24.9273898 165.028721,24.6661464 164.838871,24.4422046 C164.569727,24.1449383 163.992275,23.9174868 163.618898,23.7860847 C163.037972,23.5678131 162.460838,23.3368871 161.89381,23.0841711 C161.443995,22.8835979 160.988801,22.6688007 160.563298,22.4205026 C159.928977,22.0505996 159.27351,21.5596825 158.882108,20.9263404 C158.516332,20.3353175 158.369427,19.6697178 158.369427,18.9795062 C158.369427,18.1297619 158.598448,17.3403616 159.164524,16.6959436 C159.695238,16.0922663 160.345,15.6304497 161.07724,15.3006437 C161.817072,14.9677072 162.584048,14.7017196 163.3703,14.5014462 C164.11388,14.3122399 164.855291,14.1286861 165.595423,13.9514903 C165.775802,13.8955644 165.958377,13.819127 166.116631,13.6971958 C166.262593,13.5964286 166.38545,13.4681746 166.490661,13.3260141 C166.567725,13.221455 166.686508,13.0521517 166.792945,12.9643386 C166.904462,12.8806173 167.044718,12.8562963 167.181173,12.8562963 C167.734303,12.8562963 167.824347,13.5705115 167.844868,13.9868607 C167.879312,15.0826984 167.876464,16.1879806 167.876464,17.2844444 C167.876464,19.3715344 167.852143,21.4589242 167.797795,23.5450617 Z M170.73873,9.23524691 C170.73873,8.78825397 170.837945,8.36338624 171.099489,7.98747795 C171.349982,7.65389771 171.683889,7.4637478 172.10433,7.4637478 C172.534877,7.4637478 172.890582,7.64095238 173.142981,7.99063492 C173.407372,8.35676367 173.501508,8.78953263 173.501508,9.23524691 C173.501508,9.8155291 173.440864,10.5673633 173.099383,11.0636243 C172.859312,11.3959347 172.534259,11.6729718 172.10433,11.6729718 C171.680414,11.6729718 171.364524,11.3934039 171.143078,11.0611023 C170.7994,10.5695591 170.73873,9.81648148 170.73873,9.23524691 Z M173.734004,15.8506261 L173.178051,24.1332628 L171.7897,24.1332628 L171.779603,23.9569841 C171.646914,21.6557231 171.466543,19.3522575 171.283333,17.0547972 C171.265961,16.8393474 171.214797,16.4236508 171.066314,16.2584215 C170.881834,16.0644709 170.401376,15.8509259 170.163175,15.7473104 C169.991023,15.6793915 169.78537,15.5915785 169.640388,15.4829189 C169.465714,15.3641358 169.410423,15.1641887 169.410423,14.9626631 C169.410423,14.5677866 169.820441,14.3814109 170.143607,14.286649 C170.635441,14.142284 171.187945,14.1056437 171.698413,14.1056437 C172.199101,14.1056437 172.806243,14.1694621 173.220996,14.4777425 C173.638616,14.7879541 173.73433,15.3505644 173.734004,15.8506261 Z M178.300838,18.2911905 C178.279365,18.5195679 178.263236,18.7523898 178.263236,18.9795062 C178.263236,20.0791182 178.540282,21.1335626 179.406772,21.8635714 C180.286208,22.6046561 181.43067,22.8368519 182.554303,22.8368519 C182.785203,22.8368519 183.12478,22.8387213 183.365176,22.9224427 C183.567981,23.0213316 183.667487,23.2026279 183.667487,23.4259788 C183.667487,24.2317989 182.103836,24.2239065 181.584497,24.2239065 C180.609048,24.2239065 179.662011,24.0460758 178.771825,23.6436243 C178.337778,23.4474515 177.919859,23.2017019 177.554074,22.8952646 C177.201226,22.5996032 176.896058,22.2594004 176.63672,21.8796914 C176.070961,21.0508025 175.843519,20.0939683 175.843519,19.0979718 C175.843519,18.171455 176.04537,17.2841182 176.50216,16.4751235 C176.945979,15.6891975 177.574603,15.0845944 178.36433,14.6492769 C179.187522,14.1953527 180.081508,13.9875044 181.020644,13.9875044 C181.79142,13.9875044 182.627266,14.0784744 183.336755,14.3978307 C183.885758,14.6451764 184.390573,14.9904586 184.76015,15.4718695 C185.072566,15.8790476 185.309806,16.3329894 185.45164,16.8320723 C185.557152,17.2449471 185.630414,17.6770988 185.630414,18.1041711 L185.630414,18.2911905 L178.300838,18.2911905 Z M186.500388,22.3257407 C186.581578,22.0831217 186.767628,21.9460406 187.024444,21.9460406 C187.11828,21.9460406 187.201349,21.9605644 187.275917,21.9845591 C187.448369,22.0060582 187.768704,22.1399912 187.92948,22.2006261 C188.285811,22.3250882 188.649065,22.4347002 189.017099,22.5184127 C189.405944,22.6068783 189.802698,22.6514198 190.201675,22.6514198 C190.740256,22.6514198 191.345503,22.5661376 191.788695,22.2353792 C192.113131,21.9931041 192.324453,21.6911199 192.324453,21.2775926 C192.324453,20.7965079 192.186102,20.3684832 191.759656,20.1113404 C191.181578,19.7780864 190.422795,19.5433598 189.781552,19.3686861 C189.085961,19.1791623 188.270961,18.9090653 187.684339,18.4879982 C187.10216,18.0931217 186.90821,17.4544004 186.90821,16.7758554 C186.90821,16.2296737 187.111631,15.7447884 187.460388,15.3275132 C187.851138,14.8599735 188.405194,14.5586332 188.975697,14.3555115 C189.665617,14.1255379 190.398148,14.0348765 191.123757,14.0348765 C191.822822,14.0348765 192.518104,14.1163933 193.199471,14.2717989 C193.678686,14.3811111 194.338254,14.622425 194.337302,15.2346296 C194.297187,15.6146561 193.971825,15.7368871 193.63067,15.7368871 C193.430397,15.7368871 193.083862,15.6497002 192.885485,15.6064286 C192.496931,15.5220899 192.088157,15.4964903 191.691411,15.4964903 C191.154074,15.4964903 190.628448,15.5988536 190.151455,15.8528219 C189.800176,16.0401499 189.533254,16.3086684 189.533254,16.7284656 C189.533254,17.1315432 189.643492,17.4881922 189.992249,17.7153175 C190.469868,18.0264815 191.1547,18.2551764 191.691737,18.4203792 C192.044894,18.5078924 192.423642,18.6396032 192.774277,18.7451146 C193.181473,18.867672 193.582945,19.0259524 193.958228,19.2360053 C194.293713,19.4331305 194.568854,19.6940476 194.781129,20.020679 C195.020891,20.3899559 195.110608,20.8179806 195.110608,21.2539242 C195.110608,21.8411464 194.920432,22.3601587 194.534427,22.7979806 C194.118404,23.2888713 193.544427,23.6101323 192.94455,23.8227249 C192.218316,24.080194 191.442813,24.1806349 190.674559,24.1806349 C190.027619,24.1806349 189.375,24.0906173 188.743201,23.9554145 C188.170176,23.8325309 187.50903,23.6439506 187.0156,23.3179365 C186.7553,23.1457848 186.459012,22.8870723 186.459012,22.5468607 C186.459012,22.470097 186.475758,22.3936596 186.500388,22.3257407 Z M49.5251058,15.5517901 C48.9814462,15.5517901 48.4782363,15.6936155 48.0239947,15.99403 C47.5514021,16.3064462 47.2042504,16.7411111 46.9559524,17.2512698 C46.6568166,17.837575 46.5320282,18.4914727 46.5152822,19.1409347 C46.5152822,19.7686067 46.6188977,20.3842857 46.8668871,20.9632892 C47.0886332,21.4807231 47.431067,21.9074956 47.8909877,22.2325485 C48.3439771,22.5525397 48.8569929,22.6949912 49.4107496,22.6949912 C50.2870106,22.6949912 50.9961993,22.3690123 51.552478,21.6907937 C52.1542504,20.9576102 52.3892769,20.0803968 52.3892769,19.1409347 C52.3892769,18.4791446 52.2768166,17.8249295 52.0003968,17.2202998 C51.7679277,16.7123633 51.4324427,16.2840212 50.9728219,15.9712875 C50.5331041,15.6857231 50.0491623,15.5517901 49.5251058,15.5517901 Z M64.0531922,22.9587831 L64.0531922,16.7284656 C64.0531922,16.4258554 64.0190741,16.0098325 63.8232187,15.7675309 C63.6201235,15.5407407 63.2697884,15.4964903 62.982328,15.4964903 C62.339806,15.4964903 61.7456261,15.6677249 61.1947002,15.9984568 C60.6393651,16.3313933 60.1977513,16.7790123 59.8632363,17.3337125 C59.5552293,17.8445238 59.3694974,18.4033333 59.3694974,19.0032011 C59.3694974,21.5679101 61.9060847,22.5297884 64.0531922,22.9587831 Z M87.5942769,17.0857407 L90.6268166,17.0857407 C90.8447707,17.0857407 91.0665432,17.0452998 91.2469136,16.9236861 C91.3783245,16.8273545 91.4329718,16.7057407 91.4329718,16.5433598 C91.4329718,16.1750353 91.2573369,15.904321 90.9651235,15.6885714 C90.6106966,15.4276279 90.1814021,15.3350882 89.7476808,15.3350882 C89.2144709,15.3350882 88.7400088,15.4911464 88.3574515,15.8686243 C88.005873,16.2148325 87.7610494,16.6292769 87.5942769,17.0857407 Z M130.705062,18.9795062 C130.705062,19.6681481 130.796349,20.3814286 131.070212,21.0230071 C131.275864,21.5391623 131.588898,21.9848854 132.065591,22.2897178 C132.520459,22.5980335 133.044215,22.7183951 133.588801,22.7183951 C134.144153,22.7183951 134.670741,22.5907584 135.13888,22.287522 C135.613025,21.9807848 135.936182,21.5375926 136.151931,21.0201499 C136.418245,20.3801587 136.507963,19.6684744 136.507963,18.9795062 C136.507963,18.081746 136.361702,17.038351 135.736235,16.3456085 C135.172672,15.7217372 134.413924,15.4964903 133.588801,15.4964903 C132.774127,15.4964903 132.028616,15.723642 131.478034,16.3443651 C130.856367,17.045 130.705062,18.0763668 130.705062,18.9795062 Z M148.731005,18.9795062 C148.731005,19.6681481 148.822593,20.3811111 149.096164,21.0230071 C149.302134,21.538836 149.614841,21.9848854 150.091534,22.2897178 C150.546429,22.5980335 151.070485,22.7183951 151.614744,22.7183951 C152.170397,22.7183951 152.696358,22.5907584 153.164824,22.287522 C153.639295,21.9807848 153.962125,21.5375926 154.177901,21.0201499 C154.444189,20.3801587 154.533907,19.6684744 154.533907,18.9795062 C154.533907,18.081746 154.387646,17.038351 153.762178,16.3456085 C153.198624,15.7214198 152.440168,15.4964903 151.614744,15.4964903 C150.800071,15.4964903 150.054568,15.723642 149.503986,16.3443651 C148.88231,17.045 148.731005,18.0763668 148.731005,18.9795062 Z M165.981129,23.0980952 L165.981129,17.9623369 C165.981129,17.5061905 165.976376,17.0099295 165.911931,16.5582099 C165.873086,16.2865432 165.770097,16.0499471 165.572672,15.8578748 C165.3547,15.6462257 165.011649,15.5991534 164.721358,15.5991534 C163.757575,15.5991534 162.900238,15.8869489 162.197072,16.5531658 C161.448739,17.2620194 161.179277,18.1995767 161.179277,19.2120018 C161.179277,20.191261 161.700185,20.9430864 162.448845,21.5369665 C163.43567,22.3200441 164.755476,22.7942063 165.981129,23.0980952 Z M179.048862,17.0857407 L182.081411,17.0857407 C182.299683,17.0857407 182.520811,17.0452998 182.701481,16.9236861 C182.832919,16.8273545 182.887557,16.7057407 182.887557,16.5433598 C182.887557,16.1750353 182.711931,15.904321 182.419718,15.6885714 C182.065291,15.4276279 181.635996,15.3350882 181.201975,15.3350882 C180.669065,15.3350882 180.194594,15.4911464 179.812046,15.8686243 C179.460467,16.2148325 179.215644,16.6292769 179.048862,17.0857407 Z" id="Fill-2"></path>
            <path d="M193.020044,11.9417108 L193.020044,8.31109347 L191.726455,8.31109347 L191.726455,7.57276014 L195.192302,7.57276014 L195.192302,8.31109347 L193.904859,8.31109347 L193.904859,11.9417108 L193.020044,11.9417108 Z M195.752707,11.9417108 L195.752707,7.57276014 L197.077787,7.57276014 L197.860891,10.5524868 L198.634797,7.57276014 L199.962954,7.57276014 L199.962954,11.9417108 L199.145282,11.9417108 L199.142275,8.50229277 L198.280908,11.9417108 L197.430697,11.9417108 L196.573377,8.50229277 L196.5703,11.9417108 L195.752707,11.9417108 Z" id="Fill-3"></path>
            <path d="M44.1917725,34.332716 L45.1429806,34.2471781 C45.1875485,34.6319753 45.2926367,34.9472399 45.4583157,35.194806 C45.6239683,35.4405996 45.8804409,35.640097 46.227769,35.7933333 C46.5750794,35.944709 46.9670018,36.0212787 47.401649,36.0212787 C47.7881481,36.0212787 48.1283598,35.9643386 48.4240653,35.8485009 C48.719709,35.7327601 48.9388536,35.5741799 49.0831129,35.3729101 C49.2273721,35.1716049 49.3004586,34.9525573 49.3004586,34.7174427 C49.3004586,34.4787478 49.2309171,34.2703439 49.0919841,34.0904674 C48.9530511,33.9122663 48.7233333,33.7626896 48.402672,33.6397531 C48.1978219,33.5614109 47.7436332,33.4366755 47.0400176,33.2674691 C46.3364021,33.0983157 45.8448148,32.9397619 45.5634039,32.7900794 C45.1982187,32.5977778 44.9274603,32.3590829 44.7493563,32.0758201 C44.5694797,31.7926279 44.480388,31.4738007 44.480388,31.1228395 C44.480388,30.7345679 44.5908025,30.3729365 44.8099471,30.0381217 C45.0289947,29.7014638 45.3478042,29.4467284 45.7700265,29.2721693 C46.1903704,29.097619 46.658836,29.0103086 47.1736243,29.0103086 C47.7400794,29.0103086 48.2405644,29.101164 48.6734127,29.2845944 C49.1062875,29.4663492 49.4393915,29.7353175 49.6726631,30.0915168 C49.9060317,30.4460494 50.0307407,30.8485538 50.0485891,31.2974691 L49.0759877,31.372284 C49.0242945,30.8895679 48.847963,30.5243915 48.5469312,30.2785979 C48.24597,30.0309524 47.8005732,29.9080952 47.2127954,29.9080952 C46.6000441,29.9080952 46.1529541,30.0202822 45.8733422,30.2447531 C45.5936949,30.4691446 45.4528924,30.7398854 45.4528924,31.0570194 C45.4528924,31.3313139 45.5526543,31.5574868 45.7503792,31.7355908 C45.946358,31.9119929 46.4540123,32.0954409 47.27694,32.2806437 C48.0998589,32.4677249 48.6645414,32.6298236 48.9708995,32.7687566 C49.4144444,32.9736067 49.7440035,33.2318519 49.9559524,33.5471869 C50.1679012,33.8606702 50.2729894,34.2222751 50.2729894,34.6319753 C50.2729894,35.0398765 50.157231,35.4210494 49.9238801,35.7808113 C49.6905379,36.1406614 49.3573986,36.4202998 48.9209788,36.619806 C48.4846649,36.8193298 47.9947707,36.9190653 47.4479189,36.9190653 C46.7568254,36.9190653 46.1779277,36.8175573 45.7112081,36.6162522 C45.242716,36.4149824 44.8776367,36.1121429 44.6122222,35.7060141 C44.345,35.3016667 44.2060758,34.8439242 44.1917725,34.332716 Z M51.5341093,36.7908025 L51.5341093,31.2440035 L52.3784215,31.2440035 L52.3784215,32.0277513 C52.5511993,31.7569841 52.7826984,31.5379365 53.0713139,31.3740564 C53.3598236,31.2083774 53.6876102,31.1264903 54.0563404,31.1264903 C54.4660141,31.1264903 54.802672,31.2119312 55.0644621,31.3811552 C55.3263316,31.5521605 55.5116314,31.7890564 55.6184921,32.0954409 C56.0602381,31.4488536 56.6320459,31.1264903 57.3373545,31.1264903 C57.8895326,31.1264903 58.3152822,31.2778483 58.6109965,31.5824603 C58.9084127,31.8870459 59.0580688,32.3555379 59.0580688,32.9878307 L59.0580688,36.7908025 L58.1175573,36.7908025 L58.1175573,33.2995414 C58.1175573,32.9254674 58.085485,32.6547266 58.0248942,32.4891182 C57.9644004,32.3234656 57.8539153,32.1916314 57.6918607,32.0901235 C57.5315344,31.9885802 57.3426808,31.9386596 57.1271781,31.9386596 C56.7353527,31.9386596 56.4111199,32.0686949 56.1528042,32.3270106 C55.8945855,32.5870282 55.7663051,33.002134 55.7663051,33.5720547 L55.7663051,36.7908025 L54.8257937,36.7908025 L54.8257937,33.1908818 C54.8257937,32.7741093 54.7492063,32.4606261 54.5960758,32.2522222 C54.4428395,32.0438272 54.1917196,31.9386596 53.8443915,31.9386596 C53.5807496,31.9386596 53.3367284,32.0081305 53.1122575,32.147134 C52.8877866,32.286067 52.7257584,32.4891182 52.6242152,32.7581129 C52.5244533,33.0252293 52.4745414,33.4118078 52.4745414,33.9159171 L52.4745414,36.7908025 L51.5341093,36.7908025 Z M64.0598148,36.0961464 C63.7107055,36.3935538 63.3740476,36.6019577 63.0516931,36.7248942 C62.7292328,36.8478219 62.3836772,36.9083422 62.0131746,36.9083422 C61.4039683,36.9083422 60.9355026,36.7605115 60.6077954,36.4630247 C60.2800088,36.167381 60.1161287,35.7880071 60.1161287,35.3266138 C60.1161287,35.055873 60.1784744,34.8083069 60.3014374,34.583836 C60.426067,34.3594356 60.5881746,34.181261 60.787672,34.045873 C60.9889771,33.9104938 61.213448,33.8072046 61.4645679,33.7377425 C61.6497619,33.6896737 61.9295062,33.6433774 62.3017813,33.5970282 C63.0605644,33.5080159 63.6216226,33.3992769 63.9797002,33.2746473 C63.9832451,33.1463845 63.9850265,33.0644709 63.9850265,33.0306261 C63.9850265,32.6493739 63.8959347,32.3804056 63.7178307,32.2237037 C63.4773633,32.0117549 63.1193827,31.9065961 62.6455379,31.9065961 C62.2020194,31.9065961 61.8742416,31.9850353 61.6640653,32.1399383 C61.4521164,32.2949471 61.2971076,32.5692593 61.1955996,32.9647354 L60.2764638,32.836455 C60.3601499,32.4427778 60.497381,32.1239418 60.689709,31.8817196 C60.8821076,31.6394797 61.1599735,31.4541711 61.5233598,31.3223633 C61.8849118,31.192381 62.3071076,31.1264903 62.7844709,31.1264903 C63.2582892,31.1264903 63.6447884,31.1816578 63.9422751,31.2938448 C64.2379189,31.4061287 64.4570635,31.5450353 64.5959965,31.7142681 C64.7349295,31.8834921 64.8328924,32.0972222 64.8899383,32.3555379 C64.9201323,32.5157937 64.9362081,32.8043827 64.9362081,33.2194004 L64.9362081,34.4662963 C64.9362081,35.3372928 64.9557496,35.887672 64.9950265,36.1210406 C65.0324162,36.3543827 65.1107584,36.5770811 65.2247443,36.7908025 L64.2415697,36.7908025 C64.1471252,36.5930776 64.0865608,36.3614815 64.0598148,36.0961464 Z M63.9850265,34.0120282 C63.6430159,34.1509612 63.1300353,34.2685714 62.4460406,34.3647884 C62.0576896,34.4199559 61.7833774,34.4822928 61.6231217,34.5517637 C61.4627866,34.6212257 61.3398589,34.722769 61.252619,34.8545767 C61.1652998,34.9881834 61.1207848,35.1359877 61.1207848,35.2998942 C61.1207848,35.5474603 61.2152205,35.7559347 61.4057672,35.9215168 C61.5963757,36.0871958 61.8742416,36.1709612 62.239418,36.1709612 C62.60097,36.1709612 62.9234039,36.092522 63.2065961,35.9340388 C63.4880071,35.7772575 63.6964109,35.5617637 63.8282451,35.2892152 C63.9297795,35.0772751 63.9797002,34.765485 63.9797002,34.3540388 L63.9850265,34.0120282 Z M66.370097,36.7908025 L66.370097,31.2440035 L67.214418,31.2440035 L67.214418,32.0936684 C67.4300176,31.6999647 67.6294444,31.4399471 67.8129718,31.3152381 C67.9963933,31.1887566 68.197672,31.1264903 68.4168166,31.1264903 C68.7338536,31.1264903 69.0562169,31.2262257 69.3840035,31.4238801 L69.0491182,32.2913933 C68.8210935,32.1631393 68.5931481,32.0989947 68.3651235,32.0989947 C68.1602734,32.0989947 67.9768519,32.161358 67.8147443,32.2842945 C67.652619,32.4071517 67.5368783,32.5781305 67.4674162,32.797284 C67.362328,33.1303175 67.3106349,33.4954938 67.3106349,33.8927425 L67.3106349,36.7908025 L66.370097,36.7908025 Z M71.9811287,35.9518078 L72.1093122,36.7819312 C71.8457407,36.8370988 71.6088183,36.8655996 71.4022222,36.8655996 C71.0619929,36.8655996 70.798351,36.8122046 70.6094974,36.7034921 C70.422522,36.5948589 70.2906878,36.4541446 70.2141182,36.2778219 C70.1375573,36.1014903 70.1000617,35.7309612 70.1000617,35.1662875 L70.1000617,31.9707319 L69.4054233,31.9707319 L69.4054233,31.2440035 L70.1000617,31.2440035 L70.1000617,29.8724691 L71.0405908,29.3077954 L71.0405908,31.2440035 L71.9811287,31.2440035 L71.9811287,31.9707319 L71.0405908,31.9707319 L71.0405908,35.2197531 C71.0405908,35.4887478 71.0566667,35.6615256 71.0905115,35.7380864 C71.1225044,35.8146561 71.1759788,35.8752469 71.2507672,35.9215168 C71.3255556,35.9661111 71.4324956,35.9892063 71.5714286,35.9892063 C71.6747354,35.9892063 71.8118959,35.9767549 71.9811287,35.9518078 Z M76.1669753,36.7908025 L76.1669753,29.1385626 L77.1823016,29.1385626 L77.1823016,36.7908025 L76.1669753,36.7908025 Z M82.4280423,36.7908025 L82.4280423,36.0871958 C82.0771605,36.63403 81.5605556,36.9083422 80.8783333,36.9083422 C80.4365697,36.9083422 80.0304409,36.7872575 79.6617901,36.5432363 C79.2912875,36.3009965 79.0044709,35.9607848 78.7996208,35.5261376 C78.596552,35.0897178 78.4950088,34.5891534 78.4950088,34.0227778 C78.4950088,33.4705203 78.587672,32.9700617 78.7711023,32.519418 C78.9564021,32.0704674 79.2324956,31.7249383 79.6012257,31.4862434 C79.9681746,31.245776 80.3814021,31.1264903 80.8355908,31.1264903 C81.1704762,31.1264903 81.467963,31.1977337 81.7279806,31.3384392 C81.9880776,31.4791446 82.2000265,31.6643474 82.3638977,31.8905908 L82.3638977,29.1385626 L83.3044356,29.1385626 L83.3044356,36.7908025 L82.4280423,36.7908025 Z M79.4569665,34.0245503 C79.4569665,34.7335097 79.6065432,35.2624956 79.9075838,35.6133774 C80.206843,35.9643386 80.5613051,36.1388889 80.9691975,36.1388889 C81.3806526,36.1388889 81.7297531,35.9714374 82.0183686,35.636552 C82.3051058,35.3016667 82.4494444,34.7904586 82.4494444,34.1028924 C82.4494444,33.3476631 82.3033333,32.7919577 82.0094709,32.437425 C81.7173369,32.0829982 81.3557055,31.9065961 80.926455,31.9065961 C80.5078131,31.9065961 80.1587037,32.0758201 79.877284,32.4160317 C79.597672,32.7562346 79.4569665,33.2924162 79.4569665,34.0245503 Z M88.5751499,34.9952822 L89.5476808,35.1235626 C89.3962963,35.6882451 89.1131041,36.1282187 88.6998854,36.4399295 C88.2865608,36.7516402 87.7593563,36.9083422 87.1163051,36.9083422 C86.3076102,36.9083422 85.6663404,36.6589771 85.192522,36.1602116 C84.7187831,35.6632981 84.4818871,34.9632363 84.4818871,34.0637213 C84.4818871,33.1339418 84.7205556,32.4107055 85.1997266,31.8976896 C85.6788624,31.3829365 86.300485,31.1264903 87.0646914,31.1264903 C87.8038448,31.1264903 88.4077249,31.3776102 88.8762169,31.8817196 C89.3446032,32.3858289 89.5797531,33.0946914 89.5797531,34.0084832 C89.5797531,34.0637213 89.5779541,34.1474162 89.5744004,34.2579012 L85.4437125,34.2579012 C85.4793386,34.8652469 85.6503439,35.3319665 85.9602734,35.6544004 C86.2684392,35.9767549 86.6549383,36.1388889 87.1163051,36.1388889 C87.4600882,36.1388889 87.7540035,36.0480247 87.9962434,35.8663492 C88.2402646,35.6846914 88.432672,35.3943034 88.5751499,34.9952822 Z M85.4971076,33.4883686 L88.5858201,33.4883686 C88.5448765,33.0216755 88.4254938,32.672575 88.2313933,32.4391975 C87.9339065,32.077672 87.5456261,31.8959171 87.0700176,31.8959171 C86.6389418,31.8959171 86.2773104,32.0402028 85.983448,32.3287919 C85.6913139,32.617328 85.5291799,33.0039065 85.4971076,33.4883686 Z M94.3588801,36.0961464 C94.0097707,36.3935538 93.6730864,36.6019577 93.3507319,36.7248942 C93.0282981,36.8478219 92.6827337,36.9083422 92.312231,36.9083422 C91.7030335,36.9083422 91.2345414,36.7605115 90.9068607,36.4630247 C90.5790741,36.167381 90.4151675,35.7880071 90.4151675,35.3266138 C90.4151675,35.055873 90.4775397,34.8083069 90.6004762,34.583836 C90.7251058,34.3594356 90.8872134,34.181261 91.0867372,34.045873 C91.2880071,33.9104938 91.5124868,33.8072046 91.7635979,33.7377425 C91.9488272,33.6896737 92.228545,33.6433774 92.6008201,33.5970282 C93.3596296,33.5080159 93.920679,33.3992769 94.278739,33.2746473 C94.282284,33.1463845 94.2840653,33.0644709 94.2840653,33.0306261 C94.2840653,32.6493739 94.1949735,32.3804056 94.0168695,32.2237037 C93.7764021,32.0117549 93.4184215,31.9065961 92.9446032,31.9065961 C92.5010847,31.9065961 92.1732981,31.9850353 91.9631305,32.1399383 C91.7511817,32.2949471 91.5961728,32.5692593 91.4946384,32.9647354 L90.5755291,32.836455 C90.6591887,32.4427778 90.7964198,32.1239418 90.9887478,31.8817196 C91.1811464,31.6394797 91.4590123,31.4541711 91.8224162,31.3223633 C92.1839506,31.192381 92.6061728,31.1264903 93.0835362,31.1264903 C93.5573545,31.1264903 93.9438536,31.1816578 94.2413404,31.2938448 C94.5369841,31.4061287 94.7561023,31.5450353 94.8950353,31.7142681 C95.0339683,31.8834921 95.1319577,32.0972222 95.1889771,32.3555379 C95.2191975,32.5157937 95.2352646,32.8043827 95.2352646,33.2194004 L95.2352646,34.4662963 C95.2352646,35.3372928 95.2548148,35.887672 95.2940564,36.1210406 C95.331455,36.3543827 95.4098236,36.5770811 95.5237831,36.7908025 L94.5406085,36.7908025 C94.4461905,36.5930776 94.3855996,36.3614815 94.3588801,36.0961464 Z M94.2840653,34.0120282 C93.9420811,34.1509612 93.4290917,34.2685714 92.7451058,34.3647884 C92.3567284,34.4199559 92.0824339,34.4822928 91.9221781,34.5517637 C91.7618254,34.6212257 91.6388889,34.722769 91.551649,34.8545767 C91.4643386,34.9881834 91.4198413,35.1359877 91.4198413,35.2998942 C91.4198413,35.5474603 91.5142593,35.7559347 91.704806,35.9215168 C91.8954321,36.0871958 92.1732981,36.1709612 92.5384832,36.1709612 C92.9000088,36.1709612 93.2224691,36.092522 93.5056614,35.9340388 C93.7870723,35.7772575 93.9954762,35.5617637 94.127284,35.2892152 C94.2288183,35.0772751 94.278739,34.765485 94.278739,34.3540388 L94.2840653,34.0120282 Z M96.3058377,35.1342152 L97.2356173,34.9846296 C97.2873104,35.3569136 97.4333422,35.6418783 97.672037,35.8414021 C97.9107319,36.039127 98.2456173,36.1388889 98.67306,36.1388889 C99.1059347,36.1388889 99.4265168,36.0515785 99.6367637,35.8752469 C99.8451675,35.7006966 99.9502557,35.4940653 99.9502557,35.2571517 C99.9502557,35.0452028 99.8558377,34.877769 99.668836,34.7566138 C99.5370282,34.6729189 99.2163492,34.5678307 98.7069048,34.4378042 C98.0193739,34.2650265 97.5437831,34.1153439 97.2765608,33.988933 C97.0111464,33.8606702 96.8099471,33.6861199 96.6727866,33.461649 C96.5355556,33.23903 96.4660847,32.9913845 96.4660847,32.7206173 C96.4660847,32.4730423 96.5231041,32.2450265 96.6353175,32.0348501 C96.7493563,31.8246737 96.9025132,31.6501235 97.0966843,31.5111905 C97.242716,31.4043298 97.4422399,31.3134656 97.6934392,31.2386772 C97.946358,31.1638889 98.2153175,31.1264903 98.503836,31.1264903 C98.9384832,31.1264903 99.3196561,31.1887566 99.6474427,31.3152381 C99.9770018,31.4399471 100.219224,31.6109524 100.375926,31.8246737 C100.530935,32.0402028 100.639568,32.3270106 100.698386,32.6867989 L99.7792504,32.8150529 C99.7383069,32.5265432 99.6171429,32.300291 99.4176455,32.1381658 C99.2181217,31.9761376 98.9367019,31.8959171 98.5715256,31.8959171 C98.1423016,31.8959171 97.8341446,31.9671605 97.6506437,32.1096649 C97.4671869,32.2522222 97.3745503,32.4196561 97.3745503,32.6102028 C97.3745503,32.7313668 97.4119489,32.8417725 97.4885097,32.9397619 C97.5651764,33.0395238 97.6844885,33.1231922 97.8483686,33.1891093 C97.9427778,33.2247266 98.2170988,33.3049383 98.6766138,33.4295767 C99.3392769,33.6059083 99.8023721,33.752037 100.066014,33.864224 C100.329656,33.9764109 100.536279,34.1420899 100.685864,34.3558113 C100.837319,34.5713845 100.912108,34.8385979 100.912108,35.1591887 C100.912108,35.4708995 100.821243,35.764806 100.637795,36.0408995 C100.454365,36.3169929 100.190723,36.5307143 99.84694,36.6821693 C99.5014109,36.8335273 99.111261,36.9083422 98.6766138,36.9083422 C97.9570018,36.9083422 97.4066226,36.758739 97.0289947,36.4612522 C96.6513933,36.1620635 96.4109171,35.7203175 96.3058377,35.1342152 Z M102.290838,36.7908025 L102.290838,35.7220899 L103.35955,35.7220899 L103.35955,36.7908025 L102.290838,36.7908025 Z M108.079788,36.7908025 L108.079788,29.1385626 L110.716085,29.1385626 C111.310988,29.1385626 111.765176,29.1741799 112.078739,29.2471958 C112.516931,29.348739 112.890988,29.5322663 113.200926,29.7958025 C113.605273,30.1378924 113.906235,30.5724603 114.105732,31.1032892 C114.307037,31.6340476 114.406799,32.2414727 114.406799,32.9236861 C114.406799,33.5043651 114.339101,34.019224 114.203721,34.4680688 C114.068342,34.91694 113.893783,35.2892152 113.681834,35.583157 C113.468042,35.8770194 113.236543,36.1085891 112.983545,36.2760494 C112.732434,36.4452469 112.42784,36.5735362 112.071534,36.660776 C111.713554,36.7480864 111.303862,36.7908025 110.840714,36.7908025 L108.079788,36.7908025 Z M109.095115,35.8930952 L110.726728,35.8930952 C111.230847,35.8930952 111.626243,35.8467284 111.91306,35.7523104 C112.199797,35.6579453 112.42784,35.5261376 112.598818,35.3551323 C112.837513,35.1146649 113.024515,34.7904586 113.158104,34.3843034 C113.291711,33.9781834 113.3594,33.4865961 113.3594,32.9076896 C113.3594,32.1060935 113.227566,31.4897972 112.965776,31.0588007 C112.703907,30.6276984 112.385097,30.3390917 112.009268,30.19306 C111.738501,30.0879718 111.302081,30.0363492 110.700009,30.0363492 L109.095115,30.0363492 L109.095115,35.8930952 Z M119.463765,34.9952822 L120.436296,35.1235626 C120.284912,35.6882451 120.00172,36.1282187 119.588501,36.4399295 C119.175176,36.7516402 118.647963,36.9083422 118.004921,36.9083422 C117.196226,36.9083422 116.554956,36.6589771 116.081138,36.1602116 C115.607399,35.6632981 115.370503,34.9632363 115.370503,34.0637213 C115.370503,33.1339418 115.609171,32.4107055 116.088333,31.8976896 C116.567478,31.3829365 117.189101,31.1264903 117.953307,31.1264903 C118.69246,31.1264903 119.296332,31.3776102 119.764824,31.8817196 C120.233219,32.3858289 120.46836,33.0946914 120.46836,34.0084832 C120.46836,34.0637213 120.466587,34.1474162 120.463016,34.2579012 L116.332354,34.2579012 C116.367981,34.8652469 116.538951,35.3319665 116.848889,35.6544004 C117.157055,35.9767549 117.543554,36.1388889 118.004921,36.1388889 C118.348704,36.1388889 118.642646,36.0480247 118.884859,35.8663492 C119.12888,35.6846914 119.321279,35.3943034 119.463765,34.9952822 Z M116.38575,33.4883686 L119.474436,33.4883686 C119.433492,33.0216755 119.314109,32.672575 119.120009,32.4391975 C118.822522,32.077672 118.434242,31.8959171 117.958651,31.8959171 C117.527557,31.8959171 117.165926,32.0402028 116.872063,32.3287919 C116.579921,32.617328 116.417795,33.0039065 116.38575,33.4883686 Z M121.603069,36.7908025 L121.603069,29.1385626 L122.54358,29.1385626 L122.54358,36.7908025 L121.603069,36.7908025 Z M123.998898,30.2073545 L123.998898,29.1385626 L124.93933,29.1385626 L124.93933,30.2073545 L123.998898,30.2073545 Z M123.998898,36.7908025 L123.998898,31.2440035 L124.93933,31.2440035 L124.93933,36.7908025 L123.998898,36.7908025 Z M127.889109,36.7908025 L125.796173,31.2440035 L126.802549,31.2440035 L127.988845,34.5660582 C128.117134,34.9240388 128.23642,35.2963404 128.34515,35.6828483 C128.428845,35.3907584 128.544656,35.0398765 128.696032,34.6283245 L129.928633,31.2440035 L130.894109,31.2440035 L128.793995,36.7908025 L127.889109,36.7908025 Z M135.500388,34.9952822 L136.47291,35.1235626 C136.321534,35.6882451 136.038342,36.1282187 135.625123,36.4399295 C135.211799,36.7516402 134.684586,36.9083422 134.041543,36.9083422 C133.23284,36.9083422 132.59157,36.6589771 132.11776,36.1602116 C131.644012,35.6632981 131.407125,34.9632363 131.407125,34.0637213 C131.407125,33.1339418 131.645794,32.4107055 132.124956,31.8976896 C132.604101,31.3829365 133.225741,31.1264903 133.989921,31.1264903 C134.729083,31.1264903 135.332954,31.3776102 135.801446,31.8817196 C136.269841,32.3858289 136.504982,33.0946914 136.504982,34.0084832 C136.504982,34.0637213 136.50321,34.1474162 136.499638,34.2579012 L132.368977,34.2579012 C132.404594,34.8652469 132.575573,35.3319665 132.885511,35.6544004 C133.193677,35.9767549 133.580176,36.1388889 134.041543,36.1388889 C134.385326,36.1388889 134.679259,36.0480247 134.921481,35.8663492 C135.165503,35.6846914 135.357901,35.3943034 135.500388,34.9952822 Z M132.422372,33.4883686 L135.511058,33.4883686 C135.470115,33.0216755 135.350732,32.672575 135.156631,32.4391975 C134.859136,32.077672 134.470864,31.8959171 133.995273,31.8959171 C133.56418,31.8959171 133.202549,32.0402028 132.908686,32.3287919 C132.616543,32.617328 132.454418,33.0039065 132.422372,33.4883686 Z M137.650344,36.7908025 L137.650344,31.2440035 L138.494656,31.2440035 L138.494656,32.0936684 C138.710256,31.6999647 138.909683,31.4399471 139.09321,31.3152381 C139.27664,31.1887566 139.477937,31.1264903 139.697063,31.1264903 C140.014092,31.1264903 140.336481,31.2262257 140.664242,31.4238801 L140.329356,32.2913933 C140.101332,32.1631393 139.873386,32.0989947 139.64537,32.0989947 C139.440538,32.0989947 139.25709,32.161358 139.094982,32.2842945 C138.932884,32.4071517 138.817116,32.5781305 138.747654,32.797284 C138.642566,33.1303175 138.590873,33.4954938 138.590873,33.8927425 L138.590873,36.7908025 L137.650344,36.7908025 Z M145.003395,34.9952822 L145.975926,35.1235626 C145.824541,35.6882451 145.541358,36.1282187 145.128131,36.4399295 C144.714806,36.7516402 144.187601,36.9083422 143.54455,36.9083422 C142.735855,36.9083422 142.094586,36.6589771 141.620767,36.1602116 C141.147028,35.6632981 140.910132,34.9632363 140.910132,34.0637213 C140.910132,33.1339418 141.148801,32.4107055 141.627972,31.8976896 C142.107108,31.3829365 142.72873,31.1264903 143.492937,31.1264903 C144.23209,31.1264903 144.83597,31.3776102 145.304462,31.8817196 C145.772848,32.3858289 146.007998,33.0946914 146.007998,34.0084832 C146.007998,34.0637213 146.006226,34.1474162 146.002646,34.2579012 L141.871984,34.2579012 C141.90761,34.8652469 142.078589,35.3319665 142.388527,35.6544004 C142.696684,35.9767549 143.083183,36.1388889 143.54455,36.1388889 C143.888333,36.1388889 144.182249,36.0480247 144.424497,35.8663492 C144.66851,35.6846914 144.860917,35.3943034 145.003395,34.9952822 Z M141.925353,33.4883686 L145.014074,33.4883686 C144.973122,33.0216755 144.853739,32.672575 144.659638,32.4391975 C144.362152,32.077672 143.973871,31.8959171 143.498263,31.8959171 C143.067187,31.8959171 142.705556,32.0402028 142.411693,32.3287919 C142.119559,32.617328 141.957425,33.0039065 141.925353,33.4883686 Z M150.744383,36.7908025 L150.744383,36.0871958 C150.393501,36.63403 149.876887,36.9083422 149.194674,36.9083422 C148.752901,36.9083422 148.346781,36.7872575 147.978122,36.5432363 C147.607619,36.3009965 147.320811,35.9607848 147.115961,35.5261376 C146.912884,35.0897178 146.811367,34.5891534 146.811367,34.0227778 C146.811367,33.4705203 146.904012,32.9700617 147.087434,32.519418 C147.272743,32.0704674 147.548827,31.7249383 147.917557,31.4862434 C148.284515,31.245776 148.697734,31.1264903 149.151931,31.1264903 C149.486808,31.1264903 149.784321,31.1977337 150.044321,31.3384392 C150.304409,31.4791446 150.516358,31.6643474 150.680265,31.8905908 L150.680265,29.1385626 L151.620767,29.1385626 L151.620767,36.7908025 L150.744383,36.7908025 Z M147.773298,34.0245503 C147.773298,34.7335097 147.922884,35.2624956 148.223915,35.6133774 C148.523183,35.9643386 148.877637,36.1388889 149.285538,36.1388889 C149.696984,36.1388889 150.046093,35.9714374 150.334709,35.636552 C150.621446,35.3016667 150.765802,34.7904586 150.765802,34.1028924 C150.765802,33.3476631 150.619674,32.7919577 150.325802,32.437425 C150.033668,32.0829982 149.672037,31.9065961 149.242813,31.9065961 C148.824145,31.9065961 148.475062,32.0758201 148.193651,32.4160317 C147.914012,32.7562346 147.773298,33.2924162 147.773298,34.0245503 Z M153.375353,36.7908025 L153.375353,35.7220899 L154.444065,35.7220899 L154.444065,36.7908025 L153.375353,36.7908025 Z" id="Fill-4"></path>
        </g>
    </g>
</svg>